<?xml version="1.0" encoding="UTF-8"?>
<svg xmlns="http://www.w3.org/2000/svg" xmlns:xlink="http://www.w3.org/1999/xlink" width="3304.64" height="3305.59" viewBox="0 0 3304.64 3305.59">
<defs>
<clipPath id="clip-0">

</clipPath>
<clipPath id="clip-1">
<path clip-rule="nonzero" d="M 2454 0 L 3304.640625 0 L 3304.640625 851 L 2454 851 Z M 2454 0 "/>
</clipPath>
<clipPath id="clip-2">
<path clip-rule="nonzero" d="M 1532 588 L 2719 588 L 2719 1774 L 1532 1774 Z M 1532 588 "/>
</clipPath>
<clipPath id="clip-3">
<path clip-rule="evenodd" d="M 1532.378906 1619.789062 C 1563.351562 1636.519531 1592.441406 1657.941406 1618.558594 1684.050781 C 1645.691406 1711.179688 1667.75 1741.519531 1684.75 1773.851562 L 1996.199219 1462.378906 C 1999.25 1458.300781 2002.820312 1454.660156 2006.949219 1451.648438 L 2718.390625 740.179688 L 2566.421875 588.191406 L 1532.378906 1619.789062 "/>
</clipPath>
<linearGradient id="linear-pattern-0" gradientUnits="userSpaceOnUse" x1="0.371251" y1="0" x2="0.628723" y2="0" gradientTransform="matrix(-4606.35, 0.0004027, -0.0004027, -4606.35, 4428.5, 1181.02)">
<stop offset="0" stop-color="rgb(83.740234%, 82.85675%, 82.038879%)" stop-opacity="1"/>
<stop offset="0.03125" stop-color="rgb(83.641052%, 82.739258%, 81.915283%)" stop-opacity="1"/>
<stop offset="0.0625" stop-color="rgb(83.44574%, 82.575989%, 81.698608%)" stop-opacity="1"/>
<stop offset="0.125" stop-color="rgb(83.233643%, 82.423401%, 81.471252%)" stop-opacity="1"/>
<stop offset="0.15625" stop-color="rgb(83.114624%, 82.226562%, 81.303406%)" stop-opacity="1"/>
<stop offset="0.1875" stop-color="rgb(83.027649%, 82.026672%, 81.158447%)" stop-opacity="1"/>
<stop offset="0.21875" stop-color="rgb(82.844543%, 81.797791%, 80.92804%)" stop-opacity="1"/>
<stop offset="0.25" stop-color="rgb(82.647705%, 81.564331%, 80.683899%)" stop-opacity="1"/>
<stop offset="0.28125" stop-color="rgb(82.449341%, 81.330872%, 80.439758%)" stop-opacity="1"/>
<stop offset="0.3125" stop-color="rgb(82.252502%, 81.100464%, 80.197144%)" stop-opacity="1"/>
<stop offset="0.34375" stop-color="rgb(82.055664%, 80.870056%, 79.956055%)" stop-opacity="1"/>
<stop offset="0.375" stop-color="rgb(81.858826%, 80.639648%, 79.792786%)" stop-opacity="1"/>
<stop offset="0.40625" stop-color="rgb(81.661987%, 80.415344%, 79.716492%)" stop-opacity="1"/>
<stop offset="0.4375" stop-color="rgb(81.466675%, 80.187988%, 79.563904%)" stop-opacity="1"/>
<stop offset="0.46875" stop-color="rgb(81.269836%, 79.959106%, 79.328918%)" stop-opacity="1"/>
<stop offset="0.5" stop-color="rgb(81.072998%, 79.728699%, 79.089355%)" stop-opacity="1"/>
<stop offset="0.53125" stop-color="rgb(80.877686%, 79.501343%, 78.851318%)" stop-opacity="1"/>
<stop offset="0.5625" stop-color="rgb(80.683899%, 79.273987%, 78.614807%)" stop-opacity="1"/>
<stop offset="0.59375" stop-color="rgb(80.487061%, 79.049683%, 78.378296%)" stop-opacity="1"/>
<stop offset="0.625" stop-color="rgb(80.2948%, 78.912354%, 78.178406%)" stop-opacity="1"/>
<stop offset="0.6875" stop-color="rgb(80.108643%, 78.770447%, 77.980042%)" stop-opacity="1"/>
<stop offset="0.71875" stop-color="rgb(80.006409%, 78.562927%, 77.822876%)" stop-opacity="1"/>
<stop offset="0.75" stop-color="rgb(79.898071%, 78.361511%, 77.664185%)" stop-opacity="1"/>
<stop offset="0.78125" stop-color="rgb(79.704285%, 78.135681%, 77.430725%)" stop-opacity="1"/>
<stop offset="0.8125" stop-color="rgb(79.510498%, 77.911377%, 77.197266%)" stop-opacity="1"/>
<stop offset="0.84375" stop-color="rgb(79.315186%, 77.685547%, 76.963806%)" stop-opacity="1"/>
<stop offset="0.875" stop-color="rgb(79.122925%, 77.462769%, 76.733398%)" stop-opacity="1"/>
<stop offset="0.90625" stop-color="rgb(78.929138%, 77.23999%, 76.515198%)" stop-opacity="1"/>
<stop offset="0.9375" stop-color="rgb(78.735352%, 77.018738%, 76.38092%)" stop-opacity="1"/>
<stop offset="0.96875" stop-color="rgb(78.541565%, 76.818848%, 76.306152%)" stop-opacity="1"/>
<stop offset="1" stop-color="rgb(78.352356%, 76.701355%, 76.182556%)" stop-opacity="1"/>
</linearGradient>
<clipPath id="clip-4">
<path clip-rule="nonzero" d="M 1097 1692 L 1610 1692 L 1610 2206 L 1097 2206 Z M 1097 1692 "/>
</clipPath>
<clipPath id="clip-5">
<path clip-rule="evenodd" d="M 1172.171875 1767.421875 C 1072.671875 1866.910156 1072.671875 2030.941406 1172.171875 2130.460938 C 1271.671875 2229.949219 1435.699219 2229.949219 1535.191406 2130.460938 C 1634.691406 2030.941406 1634.691406 1866.910156 1535.191406 1767.421875 C 1486.800781 1719.011719 1422.25 1692.109375 1355.03125 1692.109375 C 1290.488281 1692.109375 1223.269531 1716.300781 1172.171875 1767.421875 "/>
</clipPath>
<linearGradient id="linear-pattern-1" gradientUnits="userSpaceOnUse" x1="-0.0479106" y1="0" x2="1.048008" y2="0" gradientTransform="matrix(512.83, 0, 0, 512.83, 1097.24, 1948.59)">
<stop offset="0" stop-color="rgb(57.369995%, 61.717224%, 65.92865%)" stop-opacity="1"/>
<stop offset="0.03125" stop-color="rgb(57.369995%, 61.717224%, 65.92865%)" stop-opacity="1"/>
<stop offset="0.046875" stop-color="rgb(57.409668%, 61.724854%, 65.927124%)" stop-opacity="1"/>
<stop offset="0.0625" stop-color="rgb(57.589722%, 61.758423%, 65.960693%)" stop-opacity="1"/>
<stop offset="0.078125" stop-color="rgb(57.727051%, 61.84082%, 66.113281%)" stop-opacity="1"/>
<stop offset="0.09375" stop-color="rgb(57.800293%, 62.002563%, 66.262817%)" stop-opacity="1"/>
<stop offset="0.109375" stop-color="rgb(57.971191%, 62.205505%, 66.395569%)" stop-opacity="1"/>
<stop offset="0.125" stop-color="rgb(58.171082%, 62.391663%, 66.581726%)" stop-opacity="1"/>
<stop offset="0.132812" stop-color="rgb(58.374023%, 62.521362%, 66.673279%)" stop-opacity="1"/>
<stop offset="0.140625" stop-color="rgb(58.564758%, 62.660217%, 66.706848%)" stop-opacity="1"/>
<stop offset="0.15625" stop-color="rgb(58.711243%, 62.814331%, 66.856384%)" stop-opacity="1"/>
<stop offset="0.171875" stop-color="rgb(58.909607%, 63.024902%, 67.053223%)" stop-opacity="1"/>
<stop offset="0.1875" stop-color="rgb(59.083557%, 63.208008%, 67.137146%)" stop-opacity="1"/>
<stop offset="0.195312" stop-color="rgb(59.19342%, 63.250732%, 67.205811%)" stop-opacity="1"/>
<stop offset="0.203125" stop-color="rgb(59.375%, 63.287354%, 67.338562%)" stop-opacity="1"/>
<stop offset="0.21875" stop-color="rgb(59.47876%, 63.458252%, 67.466736%)" stop-opacity="1"/>
<stop offset="0.234375" stop-color="rgb(59.651184%, 63.664246%, 67.550659%)" stop-opacity="1"/>
<stop offset="0.25" stop-color="rgb(59.8526%, 63.85498%, 67.74292%)" stop-opacity="1"/>
<stop offset="0.265625" stop-color="rgb(60.02655%, 64.064026%, 67.921448%)" stop-opacity="1"/>
<stop offset="0.28125" stop-color="rgb(60.229492%, 64.254761%, 68.029785%)" stop-opacity="1"/>
<stop offset="0.289062" stop-color="rgb(60.395813%, 64.390564%, 68.196106%)" stop-opacity="1"/>
<stop offset="0.296875" stop-color="rgb(60.588074%, 64.501953%, 68.301392%)" stop-opacity="1"/>
<stop offset="0.3125" stop-color="rgb(60.774231%, 64.68811%, 68.362427%)" stop-opacity="1"/>
<stop offset="0.328125" stop-color="rgb(60.977173%, 64.904785%, 68.515015%)" stop-opacity="1"/>
<stop offset="0.335938" stop-color="rgb(61.183167%, 65.100098%, 68.708801%)" stop-opacity="1"/>
<stop offset="0.34375" stop-color="rgb(61.378479%, 65.193176%, 68.77594%)" stop-opacity="1"/>
<stop offset="0.359375" stop-color="rgb(61.523438%, 65.344238%, 68.930054%)" stop-opacity="1"/>
<stop offset="0.367188" stop-color="rgb(61.627197%, 65.570068%, 69.14978%)" stop-opacity="1"/>
<stop offset="0.375" stop-color="rgb(61.779785%, 65.766907%, 69.239807%)" stop-opacity="1"/>
<stop offset="0.382812" stop-color="rgb(61.973572%, 65.907288%, 69.33136%)" stop-opacity="1"/>
<stop offset="0.390625" stop-color="rgb(62.168884%, 65.966797%, 69.470215%)" stop-opacity="1"/>
<stop offset="0.398438" stop-color="rgb(62.272644%, 66.064453%, 69.580078%)" stop-opacity="1"/>
<stop offset="0.40625" stop-color="rgb(62.281799%, 66.220093%, 69.651794%)" stop-opacity="1"/>
<stop offset="0.421875" stop-color="rgb(62.460327%, 66.352844%, 69.827271%)" stop-opacity="1"/>
<stop offset="0.4375" stop-color="rgb(62.664795%, 66.549683%, 70.021057%)" stop-opacity="1"/>
<stop offset="0.453125" stop-color="rgb(62.843323%, 66.764832%, 70.126343%)" stop-opacity="1"/>
<stop offset="0.46875" stop-color="rgb(63.049316%, 66.963196%, 70.324707%)" stop-opacity="1"/>
<stop offset="0.484375" stop-color="rgb(63.224792%, 67.179871%, 70.497131%)" stop-opacity="1"/>
<stop offset="0.5" stop-color="rgb(63.432312%, 67.378235%, 70.626831%)" stop-opacity="1"/>
<stop offset="0.515625" stop-color="rgb(63.612366%, 67.506409%, 70.802307%)" stop-opacity="1"/>
<stop offset="0.53125" stop-color="rgb(63.821411%, 67.652893%, 70.909119%)" stop-opacity="1"/>
<stop offset="0.546875" stop-color="rgb(63.999939%, 67.848206%, 71.073914%)" stop-opacity="1"/>
<stop offset="0.5625" stop-color="rgb(64.205933%, 68.074036%, 71.287537%)" stop-opacity="1"/>
<stop offset="0.578125" stop-color="rgb(64.385986%, 68.267822%, 71.382141%)" stop-opacity="1"/>
<stop offset="0.59375" stop-color="rgb(64.593506%, 68.493652%, 71.594238%)" stop-opacity="1"/>
<stop offset="0.609375" stop-color="rgb(64.782715%, 68.701172%, 71.801758%)" stop-opacity="1"/>
<stop offset="0.625" stop-color="rgb(64.967346%, 68.901062%, 71.885681%)" stop-opacity="1"/>
<stop offset="0.640625" stop-color="rgb(65.176392%, 69.096375%, 72.087097%)" stop-opacity="1"/>
<stop offset="0.65625" stop-color="rgb(65.357971%, 69.184875%, 72.273254%)" stop-opacity="1"/>
<stop offset="0.671875" stop-color="rgb(65.567017%, 69.389343%, 72.479248%)" stop-opacity="1"/>
<stop offset="0.6875" stop-color="rgb(65.74707%, 69.612122%, 72.653198%)" stop-opacity="1"/>
<stop offset="0.703125" stop-color="rgb(65.957642%, 69.816589%, 72.792053%)" stop-opacity="1"/>
<stop offset="0.71875" stop-color="rgb(66.137695%, 70.040894%, 73.01178%)" stop-opacity="1"/>
<stop offset="0.734375" stop-color="rgb(66.348267%, 70.245361%, 73.141479%)" stop-opacity="1"/>
<stop offset="0.75" stop-color="rgb(66.531372%, 70.350647%, 73.277283%)" stop-opacity="1"/>
<stop offset="0.765625" stop-color="rgb(66.743469%, 70.533752%, 73.477173%)" stop-opacity="1"/>
<stop offset="0.78125" stop-color="rgb(66.923523%, 70.732117%, 73.573303%)" stop-opacity="1"/>
<stop offset="0.789063" stop-color="rgb(67.037964%, 70.857239%, 73.681641%)" stop-opacity="1"/>
<stop offset="0.796875" stop-color="rgb(67.218018%, 71.058655%, 73.892212%)" stop-opacity="1"/>
<stop offset="0.8125" stop-color="rgb(67.330933%, 71.185303%, 74.012756%)" stop-opacity="1"/>
<stop offset="0.828125" stop-color="rgb(67.514038%, 71.385193%, 74.098206%)" stop-opacity="1"/>
<stop offset="0.84375" stop-color="rgb(67.681885%, 71.57135%, 74.305725%)" stop-opacity="1"/>
<stop offset="0.859375" stop-color="rgb(67.739868%, 71.638489%, 74.453735%)" stop-opacity="1"/>
<stop offset="0.875" stop-color="rgb(67.921448%, 71.839905%, 74.575806%)" stop-opacity="1"/>
<stop offset="0.890625" stop-color="rgb(68.135071%, 72.076416%, 74.801636%)" stop-opacity="1"/>
<stop offset="0.90625" stop-color="rgb(68.318176%, 72.280884%, 74.95575%)" stop-opacity="1"/>
<stop offset="0.921875" stop-color="rgb(68.530273%, 72.515869%, 75.125122%)" stop-opacity="1"/>
<stop offset="0.9375" stop-color="rgb(68.714905%, 72.723389%, 75.341797%)" stop-opacity="1"/>
<stop offset="0.953125" stop-color="rgb(68.928528%, 72.9599%, 75.471497%)" stop-opacity="1"/>
<stop offset="0.96875" stop-color="rgb(69.111633%, 73.162842%, 75.535583%)" stop-opacity="1"/>
<stop offset="1" stop-color="rgb(69.151306%, 73.205566%, 75.549316%)" stop-opacity="1"/>
</linearGradient>
<clipPath id="clip-6">
<path clip-rule="nonzero" d="M 116 1219 L 2081 1219 L 2081 3192 L 116 3192 Z M 116 1219 "/>
</clipPath>
<clipPath id="clip-7">
<path clip-rule="evenodd" d="M 214.835938 2652.140625 C 263.242188 2735.5 327.773438 2816.160156 408.460938 2896.851562 C 489.136719 2977.511719 569.796875 3042.050781 653.164062 3090.449219 C 857.546875 3211.460938 1096.878906 3224.929688 1287.800781 3125.410156 C 1459.898438 3036.660156 1564.78125 2872.628906 1583.601562 2665.578125 C 1607.800781 2402.039062 1704.601562 2337.5 1806.800781 2264.910156 C 1852.5 2232.628906 1898.230469 2203.050781 1946.640625 2149.261719 C 2123.621094 1955.96875 2096.929688 1750.609375 2027.199219 1594.25 L 1723.941406 1896.089844 C 1739.378906 2007.898438 1704.261719 2125.441406 1618.558594 2211.121094 C 1545.960938 2286.421875 1451.828125 2321.378906 1355.03125 2321.378906 C 1258.210938 2321.378906 1164.101562 2283.738281 1091.488281 2211.121094 C 946.285156 2065.921875 946.285156 1829.269531 1091.488281 1684.050781 C 1177.808594 1597.75 1296.441406 1562.738281 1408.960938 1579.039062 L 1714.769531 1273.230469 C 1557.769531 1203.140625 1350.140625 1175.878906 1158.71875 1353.289062 C 1104.941406 1401.699219 1072.671875 1450.101562 1043.089844 1493.128906 C 973.167969 1595.308594 905.941406 1694.789062 642.40625 1716.300781 C 435.34375 1735.128906 271.304688 1840.011719 182.566406 2012.128906 C 83.0625 2208.441406 96.507812 2447.769531 214.835938 2652.140625 Z M 712.3125 2200.371094 L 1102.25 2592.988281 C 1123.761719 2614.5 1123.761719 2652.140625 1102.25 2676.328125 L 924.773438 2853.800781 C 914.019531 2864.570312 900.558594 2869.960938 884.429688 2869.960938 C 868.304688 2869.960938 854.855469 2864.570312 844.085938 2853.828125 L 451.484375 2461.210938 C 429.960938 2439.699219 429.960938 2402.039062 451.484375 2377.851562 L 628.960938 2200.371094 C 650.472656 2178.859375 688.121094 2178.859375 712.3125 2200.371094 "/>
</clipPath>
<linearGradient id="linear-pattern-2" gradientUnits="userSpaceOnUse" x1="-0.0343061" y1="0" x2="1.044681" y2="0" gradientTransform="matrix(1891.18, 0, 0, 1891.18, 147.94, 2205.5)">
<stop offset="0" stop-color="rgb(86.857605%, 63.652039%, 30.082703%)" stop-opacity="1"/>
<stop offset="0.03125" stop-color="rgb(86.857605%, 63.652039%, 30.082703%)" stop-opacity="1"/>
<stop offset="0.0390625" stop-color="rgb(86.857605%, 63.652039%, 30.00946%)" stop-opacity="1"/>
<stop offset="0.046875" stop-color="rgb(86.863708%, 63.650513%, 29.858398%)" stop-opacity="1"/>
<stop offset="0.0625" stop-color="rgb(87.031555%, 63.517761%, 29.742432%)" stop-opacity="1"/>
<stop offset="0.09375" stop-color="rgb(87.19635%, 63.38501%, 29.672241%)" stop-opacity="1"/>
<stop offset="0.109375" stop-color="rgb(87.245178%, 63.349915%, 29.512024%)" stop-opacity="1"/>
<stop offset="0.125" stop-color="rgb(87.413025%, 63.217163%, 29.356384%)" stop-opacity="1"/>
<stop offset="0.140625" stop-color="rgb(87.535095%, 63.117981%, 29.267883%)" stop-opacity="1"/>
<stop offset="0.15625" stop-color="rgb(87.536621%, 63.119507%, 29.119873%)" stop-opacity="1"/>
<stop offset="0.171875" stop-color="rgb(87.532043%, 63.034058%, 28.947449%)" stop-opacity="1"/>
<stop offset="0.1875" stop-color="rgb(87.6297%, 62.889099%, 28.773499%)" stop-opacity="1"/>
<stop offset="0.21875" stop-color="rgb(87.802124%, 62.840271%, 28.561401%)" stop-opacity="1"/>
<stop offset="0.234375" stop-color="rgb(87.869263%, 62.727356%, 28.395081%)" stop-opacity="1"/>
<stop offset="0.25" stop-color="rgb(87.860107%, 62.564087%, 28.344727%)" stop-opacity="1"/>
<stop offset="0.265625" stop-color="rgb(88.017273%, 62.55188%, 28.181458%)" stop-opacity="1"/>
<stop offset="0.28125" stop-color="rgb(88.194275%, 62.582397%, 28.00293%)" stop-opacity="1"/>
<stop offset="0.296875" stop-color="rgb(88.212585%, 62.582397%, 27.981567%)" stop-opacity="1"/>
<stop offset="0.3125" stop-color="rgb(88.204956%, 62.419128%, 27.825928%)" stop-opacity="1"/>
<stop offset="0.328125" stop-color="rgb(88.221741%, 62.263489%, 27.668762%)" stop-opacity="1"/>
<stop offset="0.34375" stop-color="rgb(88.398743%, 62.29248%, 27.607727%)" stop-opacity="1"/>
<stop offset="0.359375" stop-color="rgb(88.546753%, 62.27417%, 27.430725%)" stop-opacity="1"/>
<stop offset="0.375" stop-color="rgb(88.539124%, 62.110901%, 27.259827%)" stop-opacity="1"/>
<stop offset="0.40625" stop-color="rgb(88.53302%, 61.991882%, 27.107239%)" stop-opacity="1"/>
<stop offset="0.421875" stop-color="rgb(88.619995%, 61.923218%, 26.913452%)" stop-opacity="1"/>
<stop offset="0.4375" stop-color="rgb(88.787842%, 61.787415%, 26.728821%)" stop-opacity="1"/>
<stop offset="0.46875" stop-color="rgb(88.868713%, 61.723328%, 26.53656%)" stop-opacity="1"/>
<stop offset="0.484375" stop-color="rgb(88.868713%, 61.724854%, 26.38855%)" stop-opacity="1"/>
<stop offset="0.5" stop-color="rgb(89.007568%, 61.613464%, 26.193237%)" stop-opacity="1"/>
<stop offset="0.53125" stop-color="rgb(89.175415%, 61.479187%, 26.008606%)" stop-opacity="1"/>
<stop offset="0.539062" stop-color="rgb(89.202881%, 61.454773%, 25.906372%)" stop-opacity="1"/>
<stop offset="0.546875" stop-color="rgb(89.204407%, 61.457825%, 25.759888%)" stop-opacity="1"/>
<stop offset="0.5625" stop-color="rgb(89.202881%, 61.447144%, 25.682068%)" stop-opacity="1"/>
<stop offset="0.578125" stop-color="rgb(89.219666%, 61.2854%, 25.654602%)" stop-opacity="1"/>
<stop offset="0.59375" stop-color="rgb(89.387512%, 61.161804%, 25.473022%)" stop-opacity="1"/>
<stop offset="0.625" stop-color="rgb(89.533997%, 61.134338%, 25.270081%)" stop-opacity="1"/>
<stop offset="0.65625" stop-color="rgb(89.604187%, 60.983276%, 25.105286%)" stop-opacity="1"/>
<stop offset="0.671875" stop-color="rgb(89.775085%, 60.900879%, 24.897766%)" stop-opacity="1"/>
<stop offset="0.6875" stop-color="rgb(89.865112%, 60.824585%, 24.731445%)" stop-opacity="1"/>
<stop offset="0.71875" stop-color="rgb(89.855957%, 60.661316%, 24.557495%)" stop-opacity="1"/>
<stop offset="0.734375" stop-color="rgb(89.985657%, 60.612488%, 24.383545%)" stop-opacity="1"/>
<stop offset="0.75" stop-color="rgb(90.151978%, 60.505676%, 24.305725%)" stop-opacity="1"/>
<stop offset="0.765625" stop-color="rgb(90.185547%, 60.346985%, 24.168396%)" stop-opacity="1"/>
<stop offset="0.78125" stop-color="rgb(90.184021%, 60.319519%, 24.021912%)" stop-opacity="1"/>
<stop offset="0.796875" stop-color="rgb(90.185547%, 60.319519%, 24.003601%)" stop-opacity="1"/>
<stop offset="0.8125" stop-color="rgb(90.350342%, 60.183716%, 23.825073%)" stop-opacity="1"/>
<stop offset="0.84375" stop-color="rgb(90.513611%, 60.046387%, 23.646545%)" stop-opacity="1"/>
<stop offset="0.859375" stop-color="rgb(90.512085%, 60.005188%, 23.608398%)" stop-opacity="1"/>
<stop offset="0.875" stop-color="rgb(90.501404%, 59.843445%, 23.46344%)" stop-opacity="1"/>
<stop offset="0.890625" stop-color="rgb(90.560913%, 59.73053%, 23.342896%)" stop-opacity="1"/>
<stop offset="0.90625" stop-color="rgb(90.736389%, 59.75647%, 23.309326%)" stop-opacity="1"/>
<stop offset="0.921875" stop-color="rgb(90.838623%, 59.689331%, 23.28949%)" stop-opacity="1"/>
<stop offset="0.9375" stop-color="rgb(90.827942%, 59.526062%, 23.207092%)" stop-opacity="1"/>
<stop offset="1" stop-color="rgb(90.823364%, 59.446716%, 23.06366%)" stop-opacity="1"/>
</linearGradient>
<clipPath id="clip-8">
<path clip-rule="nonzero" d="M 575 2324 L 979 2324 L 979 2731 L 575 2731 Z M 575 2324 "/>
</clipPath>
<clipPath id="clip-9">
<path clip-rule="evenodd" d="M 575.183594 2420.871094 L 884.429688 2730.121094 L 978.550781 2636.011719 L 669.289062 2324.058594 L 575.183594 2420.871094 "/>
</clipPath>
<linearGradient id="linear-pattern-3" gradientUnits="userSpaceOnUse" x1="0.265488" y1="0" x2="0.734465" y2="0" gradientTransform="matrix(-860.106, 0.00007519, -0.00007519, -860.106, 1206.9, 2527.09)">
<stop offset="0" stop-color="rgb(85.969543%, 85.404968%, 84.365845%)" stop-opacity="1"/>
<stop offset="0.03125" stop-color="rgb(85.791016%, 85.237122%, 84.202576%)" stop-opacity="1"/>
<stop offset="0.0625" stop-color="rgb(85.426331%, 84.849548%, 83.808899%)" stop-opacity="1"/>
<stop offset="0.09375" stop-color="rgb(85.061646%, 84.417725%, 83.435059%)" stop-opacity="1"/>
<stop offset="0.125" stop-color="rgb(84.700012%, 84.063721%, 83.180237%)" stop-opacity="1"/>
<stop offset="0.15625" stop-color="rgb(84.342957%, 83.810425%, 82.88269%)" stop-opacity="1"/>
<stop offset="0.1875" stop-color="rgb(84.034729%, 83.49762%, 82.516479%)" stop-opacity="1"/>
<stop offset="0.21875" stop-color="rgb(83.862305%, 83.123779%, 82.237244%)" stop-opacity="1"/>
<stop offset="0.25" stop-color="rgb(83.641052%, 82.756042%, 81.921387%)" stop-opacity="1"/>
<stop offset="0.3125" stop-color="rgb(83.287048%, 82.344055%, 81.483459%)" stop-opacity="1"/>
<stop offset="0.34375" stop-color="rgb(82.939148%, 81.916809%, 81.047058%)" stop-opacity="1"/>
<stop offset="0.375" stop-color="rgb(82.58667%, 81.494141%, 80.609131%)" stop-opacity="1"/>
<stop offset="0.40625" stop-color="rgb(82.228088%, 81.071472%, 80.168152%)" stop-opacity="1"/>
<stop offset="0.4375" stop-color="rgb(81.871033%, 80.654907%, 79.837036%)" stop-opacity="1"/>
<stop offset="0.46875" stop-color="rgb(81.510925%, 80.241394%, 79.566956%)" stop-opacity="1"/>
<stop offset="0.5" stop-color="rgb(81.155396%, 79.823303%, 79.188538%)" stop-opacity="1"/>
<stop offset="0.53125" stop-color="rgb(80.79834%, 79.408264%, 78.755188%)" stop-opacity="1"/>
<stop offset="0.5625" stop-color="rgb(80.445862%, 79.05426%, 78.346252%)" stop-opacity="1"/>
<stop offset="0.59375" stop-color="rgb(80.145264%, 78.826904%, 78.02887%)" stop-opacity="1"/>
<stop offset="0.625" stop-color="rgb(79.980469%, 78.578186%, 77.809143%)" stop-opacity="1"/>
<stop offset="0.65625" stop-color="rgb(79.763794%, 78.205872%, 77.502441%)" stop-opacity="1"/>
<stop offset="0.6875" stop-color="rgb(79.40979%, 77.79541%, 77.076721%)" stop-opacity="1"/>
<stop offset="0.71875" stop-color="rgb(79.057312%, 77.388%, 76.654053%)" stop-opacity="1"/>
<stop offset="0.75" stop-color="rgb(78.704834%, 76.985168%, 76.377869%)" stop-opacity="1"/>
<stop offset="0.78125" stop-color="rgb(78.356934%, 76.722717%, 76.174927%)" stop-opacity="1"/>
<stop offset="0.8125" stop-color="rgb(78.007507%, 76.487732%, 75.842285%)" stop-opacity="1"/>
<stop offset="0.84375" stop-color="rgb(77.780151%, 76.148987%, 75.439453%)" stop-opacity="1"/>
<stop offset="0.875" stop-color="rgb(77.616882%, 75.793457%, 75.115967%)" stop-opacity="1"/>
<stop offset="0.90625" stop-color="rgb(77.331543%, 75.411987%, 74.862671%)" stop-opacity="1"/>
<stop offset="0.9375" stop-color="rgb(76.985168%, 75.086975%, 74.54834%)" stop-opacity="1"/>
<stop offset="0.96875" stop-color="rgb(76.64032%, 74.859619%, 74.205017%)" stop-opacity="1"/>
<stop offset="1" stop-color="rgb(76.293945%, 74.562073%, 73.878479%)" stop-opacity="1"/>
</linearGradient>
<clipPath id="clip-10">
<path clip-rule="nonzero" d="M 2592 117 L 3185 117 L 3185 711 L 2592 711 Z M 2592 117 "/>
</clipPath>
<clipPath id="clip-11">
<path clip-rule="evenodd" d="M 2616.699219 474.441406 L 2842.101562 699.828125 L 2852.851562 710.601562 L 3172.859375 390.578125 C 3188.988281 374.460938 3188.988281 344.871094 3172.859375 328.730469 L 2973.878906 129.738281 C 2957.75 113.601562 2928.148438 113.601562 2912.019531 129.738281 L 2841.238281 200.519531 C 2839.191406 204 2836.800781 207.320312 2834.039062 210.421875 C 2830.808594 213.648438 2827.078125 216.390625 2823.121094 218.648438 L 2712.171875 329.601562 C 2710.121094 333.078125 2707.710938 336.398438 2704.949219 339.5 C 2701.769531 342.691406 2698.121094 345.410156 2694.128906 347.648438 L 2592.011719 449.75 L 2598.28125 456.011719 C 2601.75 458.058594 2605.058594 460.460938 2608.128906 463.210938 C 2611.519531 466.601562 2614.378906 470.378906 2616.699219 474.441406 "/>
</clipPath>
<linearGradient id="linear-pattern-4" gradientUnits="userSpaceOnUse" x1="0.0635357" y1="0" x2="0.949326" y2="0" gradientTransform="matrix(673.952, 0, 0, 673.952, 2549.19, 414.12)">
<stop offset="0" stop-color="rgb(87.19635%, 63.38501%, 29.702759%)" stop-opacity="1"/>
<stop offset="0.03125" stop-color="rgb(87.322998%, 63.285828%, 29.525757%)" stop-opacity="1"/>
<stop offset="0.0625" stop-color="rgb(87.493896%, 63.153076%, 29.264832%)" stop-opacity="1"/>
<stop offset="0.09375" stop-color="rgb(87.535095%, 63.08136%, 29.069519%)" stop-opacity="1"/>
<stop offset="0.125" stop-color="rgb(87.69989%, 62.948608%, 28.807068%)" stop-opacity="1"/>
<stop offset="0.15625" stop-color="rgb(87.872314%, 62.852478%, 28.547668%)" stop-opacity="1"/>
<stop offset="0.171875" stop-color="rgb(87.870789%, 62.756348%, 28.393555%)" stop-opacity="1"/>
<stop offset="0.1875" stop-color="rgb(87.861633%, 62.591553%, 28.344727%)" stop-opacity="1"/>
<stop offset="0.203125" stop-color="rgb(87.919617%, 62.535095%, 28.282166%)" stop-opacity="1"/>
<stop offset="0.21875" stop-color="rgb(88.095093%, 62.565613%, 28.102112%)" stop-opacity="1"/>
<stop offset="0.25" stop-color="rgb(88.212585%, 62.585449%, 27.983093%)" stop-opacity="1"/>
<stop offset="0.265625" stop-color="rgb(88.206482%, 62.451172%, 27.856445%)" stop-opacity="1"/>
<stop offset="0.28125" stop-color="rgb(88.197327%, 62.287903%, 27.702332%)" stop-opacity="1"/>
<stop offset="0.296875" stop-color="rgb(88.298035%, 62.275696%, 27.656555%)" stop-opacity="1"/>
<stop offset="0.3125" stop-color="rgb(88.473511%, 62.304688%, 27.558899%)" stop-opacity="1"/>
<stop offset="0.328125" stop-color="rgb(88.546753%, 62.266541%, 27.39563%)" stop-opacity="1"/>
<stop offset="0.34375" stop-color="rgb(88.537598%, 62.103271%, 27.279663%)" stop-opacity="1"/>
<stop offset="0.375" stop-color="rgb(88.53302%, 61.991882%, 27.128601%)" stop-opacity="1"/>
<stop offset="0.40625" stop-color="rgb(88.645935%, 61.901855%, 26.88446%)" stop-opacity="1"/>
<stop offset="0.4375" stop-color="rgb(88.813782%, 61.766052%, 26.699829%)" stop-opacity="1"/>
<stop offset="0.453125" stop-color="rgb(88.868713%, 61.723328%, 26.597595%)" stop-opacity="1"/>
<stop offset="0.46875" stop-color="rgb(88.868713%, 61.724854%, 26.448059%)" stop-opacity="1"/>
<stop offset="0.5" stop-color="rgb(89.021301%, 61.602783%, 26.177979%)" stop-opacity="1"/>
<stop offset="0.53125" stop-color="rgb(89.187622%, 61.468506%, 25.994873%)" stop-opacity="1"/>
<stop offset="0.546875" stop-color="rgb(89.202881%, 61.456299%, 25.900269%)" stop-opacity="1"/>
<stop offset="0.5625" stop-color="rgb(89.204407%, 61.457825%, 25.753784%)" stop-opacity="1"/>
<stop offset="0.578125" stop-color="rgb(89.201355%, 61.4151%, 25.682068%)" stop-opacity="1"/>
<stop offset="0.59375" stop-color="rgb(89.216614%, 61.254883%, 25.654602%)" stop-opacity="1"/>
<stop offset="0.625" stop-color="rgb(89.387512%, 61.161804%, 25.473022%)" stop-opacity="1"/>
<stop offset="0.65625" stop-color="rgb(89.532471%, 61.08551%, 25.224304%)" stop-opacity="1"/>
<stop offset="0.6875" stop-color="rgb(89.588928%, 60.932922%, 25.062561%)" stop-opacity="1"/>
<stop offset="0.703125" stop-color="rgb(89.759827%, 60.897827%, 24.938965%)" stop-opacity="1"/>
<stop offset="0.71875" stop-color="rgb(89.86969%, 60.899353%, 24.772644%)" stop-opacity="1"/>
<stop offset="0.75" stop-color="rgb(89.860535%, 60.734558%, 24.659729%)" stop-opacity="1"/>
<stop offset="0.765625" stop-color="rgb(89.851379%, 60.591125%, 24.551392%)" stop-opacity="1"/>
<stop offset="0.78125" stop-color="rgb(89.958191%, 60.60791%, 24.385071%)" stop-opacity="1"/>
<stop offset="0.796875" stop-color="rgb(90.127563%, 60.559082%, 24.311829%)" stop-opacity="1"/>
<stop offset="0.8125" stop-color="rgb(90.188599%, 60.404968%, 24.247742%)" stop-opacity="1"/>
<stop offset="0.84375" stop-color="rgb(90.184021%, 60.319519%, 24.099731%)" stop-opacity="1"/>
<stop offset="0.875" stop-color="rgb(90.32135%, 60.206604%, 23.855591%)" stop-opacity="1"/>
<stop offset="0.9375" stop-color="rgb(90.484619%, 60.018921%, 23.629761%)" stop-opacity="1"/>
<stop offset="0.96875" stop-color="rgb(90.513611%, 59.83429%, 23.452759%)" stop-opacity="1"/>
<stop offset="1" stop-color="rgb(90.679932%, 59.74884%, 23.320007%)" stop-opacity="1"/>
</linearGradient>
</defs>
<g clip-path="url(#clip-0)">
<path fill-rule="evenodd" fill="rgb(18.066406%, 17.614746%, 17.69104%)" fill-opacity="1" d="M 1010.820312 3305.589844 C 870.980469 3305.589844 725.773438 3265.25 594 3189.96875 C 502.570312 3136.179688 413.832031 3066.261719 327.773438 2980.21875 C 241.730469 2894.171875 171.8125 2802.738281 118.03125 2713.988281 C -24.496094 2471.960938 -37.945312 2192.308594 77.691406 1963.71875 C 182.566406 1756.671875 384.257812 1627.578125 628.960938 1606.070312 C 836.023438 1587.25 876.355469 1528.078125 943.578125 1431.269531 C 975.859375 1382.878906 1013.511719 1329.101562 1078.039062 1269.941406 C 1365.78125 1006.398438 1677.710938 1119.339844 1839.058594 1208.078125 C 1865.949219 1224.210938 1876.699219 1259.179688 1860.570312 1286.058594 C 1844.441406 1312.960938 1809.480469 1323.710938 1782.589844 1307.570312 C 1621.238281 1216.160156 1379.230469 1148.921875 1158.71875 1353.289062 C 1104.941406 1401.699219 1072.671875 1450.101562 1043.089844 1493.128906 C 973.167969 1595.308594 905.941406 1694.789062 642.40625 1716.300781 C 435.34375 1735.128906 271.304688 1840.011719 182.566406 2012.128906 C 83.0625 2208.441406 96.507812 2447.769531 214.835938 2652.140625 C 263.242188 2735.5 327.773438 2816.160156 408.460938 2896.851562 C 489.136719 2977.511719 569.796875 3042.050781 653.164062 3090.449219 C 857.546875 3211.460938 1096.878906 3224.929688 1287.800781 3125.410156 C 1459.898438 3036.660156 1564.78125 2872.628906 1583.601562 2665.578125 C 1607.800781 2402.039062 1704.601562 2337.5 1806.800781 2264.910156 C 1852.5 2232.628906 1898.230469 2203.050781 1946.640625 2149.261719 C 2151.011719 1926.058594 2083.769531 1686.730469 1992.339844 1525.390625 C 1976.210938 1498.511719 1986.960938 1460.859375 2013.851562 1447.410156 C 2040.75 1431.269531 2078.390625 1442.039062 2091.828125 1468.921875 C 2183.261719 1630.269531 2293.53125 1939.511719 2029.980469 2229.949219 C 1973.511719 2291.800781 1917.039062 2329.441406 1868.628906 2364.398438 C 1771.839844 2431.640625 1712.671875 2469.28125 1693.839844 2679.03125 C 1672.320312 2923.71875 1540.578125 3125.410156 1336.191406 3230.289062 C 1239.390625 3278.699219 1123.761719 3305.589844 1010.820312 3305.589844 "/>
</g>
<path fill-rule="evenodd" fill="rgb(18.066406%, 17.614746%, 17.69104%)" fill-opacity="1" d="M 1427.640625 1700.199219 C 1441.078125 1700.199219 1457.210938 1694.820312 1467.96875 1684.050781 L 2608.128906 546.570312 C 2629.671875 522.371094 2629.671875 484.71875 2608.128906 463.210938 C 2583.941406 441.699219 2546.300781 441.699219 2524.789062 463.210938 L 1387.289062 1600.710938 C 1365.78125 1624.898438 1365.78125 1662.550781 1387.289062 1684.050781 C 1398.050781 1694.820312 1411.5 1700.199219 1427.640625 1700.199219 Z M 1661.578125 1936.828125 C 1645.460938 1936.828125 1632.011719 1931.46875 1621.238281 1920.699219 C 1599.738281 1899.191406 1599.738281 1861.550781 1621.238281 1837.328125 L 2758.738281 699.828125 C 2780.25 678.320312 2817.910156 678.320312 2842.101562 699.828125 C 2863.621094 721.359375 2863.621094 759 2842.101562 783.199219 L 1701.898438 1918.019531 C 1691.160156 1931.441406 1677.710938 1936.828125 1661.578125 1936.828125 "/>
<path fill-rule="evenodd" fill="rgb(18.066406%, 17.614746%, 17.69104%)" fill-opacity="1" d="M 1355.03125 1692.109375 C 1290.488281 1692.109375 1223.269531 1716.300781 1172.171875 1767.421875 C 1072.671875 1866.910156 1072.671875 2030.941406 1172.171875 2130.460938 C 1271.671875 2229.949219 1435.699219 2229.949219 1535.191406 2130.460938 C 1634.691406 2030.941406 1634.691406 1866.910156 1535.191406 1767.421875 C 1486.800781 1719.011719 1422.25 1692.109375 1355.03125 1692.109375 Z M 1355.03125 2321.378906 C 1258.210938 2321.378906 1164.101562 2283.738281 1091.488281 2211.121094 C 946.285156 2065.921875 946.285156 1829.269531 1091.488281 1684.050781 C 1236.710938 1538.851562 1473.351562 1538.851562 1618.558594 1684.050781 C 1763.78125 1829.269531 1763.78125 2065.921875 1618.558594 2211.121094 C 1545.960938 2286.421875 1451.828125 2321.378906 1355.03125 2321.378906 "/>
<path fill-rule="evenodd" fill="rgb(18.066406%, 17.614746%, 17.69104%)" fill-opacity="1" d="M 575.183594 2420.871094 L 884.429688 2730.121094 L 978.550781 2636.011719 L 669.289062 2324.058594 Z M 884.429688 2869.960938 C 868.304688 2869.960938 854.855469 2864.570312 844.085938 2853.828125 L 451.484375 2461.210938 C 429.960938 2439.699219 429.960938 2402.039062 451.484375 2377.851562 L 628.960938 2200.371094 C 650.472656 2178.859375 688.121094 2178.859375 712.3125 2200.371094 L 1102.25 2592.988281 C 1123.761719 2614.5 1123.761719 2652.140625 1102.25 2676.328125 L 924.773438 2853.800781 C 914.019531 2864.570312 900.558594 2869.960938 884.429688 2869.960938 "/>
<g clip-path="url(#clip-1)">
<path fill-rule="evenodd" fill="rgb(18.066406%, 17.614746%, 17.69104%)" fill-opacity="1" d="M 2592.011719 449.75 L 2852.851562 710.601562 L 3172.859375 390.578125 C 3188.988281 374.460938 3188.988281 344.871094 3172.859375 328.730469 L 2973.878906 129.738281 C 2957.75 113.601562 2928.148438 113.601562 2912.019531 129.738281 Z M 2852.851562 850.429688 C 2836.71875 850.429688 2823.269531 845.050781 2812.53125 834.300781 L 2471 492.78125 C 2449.488281 471.269531 2449.488281 433.621094 2471 409.421875 L 2834.039062 46.390625 C 2895.898438 -15.460938 2998.070312 -15.460938 3059.921875 46.390625 L 3258.910156 245.378906 C 3288.480469 274.960938 3304.640625 315.300781 3304.640625 358.320312 C 3304.640625 401.351562 3288.480469 441.679688 3258.910156 471.269531 L 2895.898438 834.300781 C 2885.128906 845.050781 2869 850.429688 2852.851562 850.429688 "/>
</g>
<path fill-rule="evenodd" fill="rgb(18.066406%, 17.614746%, 17.69104%)" fill-opacity="1" d="M 3229.328125 664.890625 C 3213.210938 664.890625 3199.761719 659.519531 3188.988281 648.75 L 3094.878906 554.640625 C 3073.371094 533.109375 3073.371094 495.480469 3094.878906 471.269531 C 3116.390625 449.761719 3154.03125 449.761719 3178.25 471.269531 L 3272.359375 565.390625 C 3293.871094 586.910156 3293.871094 624.558594 3272.359375 648.75 C 3261.621094 659.5 3245.460938 664.890625 3229.328125 664.890625 "/>
<path fill-rule="evenodd" fill="rgb(18.066406%, 17.614746%, 17.69104%)" fill-opacity="1" d="M 3092.199219 785.890625 C 3076.050781 785.890625 3062.601562 780.519531 3051.859375 769.761719 L 2965.789062 683.710938 C 2944.28125 662.191406 2944.28125 624.539062 2965.789062 600.351562 C 2987.328125 578.828125 3024.960938 578.828125 3049.148438 600.351562 L 3135.230469 686.398438 C 3156.738281 707.910156 3156.738281 745.558594 3135.230469 769.761719 C 3121.78125 780.519531 3108.328125 785.890625 3092.199219 785.890625 "/>
<path fill-rule="evenodd" fill="rgb(18.066406%, 17.614746%, 17.69104%)" fill-opacity="1" d="M 2793.699219 226.539062 C 2777.570312 226.539062 2764.121094 221.171875 2753.351562 210.421875 L 2659.25 116.300781 C 2635.050781 92.089844 2635.050781 54.441406 2656.570312 32.941406 C 2678.078125 11.429688 2715.71875 11.421875 2739.910156 32.941406 L 2834.039062 127.050781 C 2855.550781 148.578125 2855.550781 186.210938 2834.039062 210.421875 C 2823.269531 221.171875 2807.148438 226.539062 2793.699219 226.539062 "/>
<path fill-rule="evenodd" fill="rgb(18.066406%, 17.614746%, 17.69104%)" fill-opacity="1" d="M 2661.921875 355.640625 C 2645.800781 355.640625 2632.351562 350.25 2621.609375 339.5 L 2535.539062 253.449219 C 2514.019531 231.929688 2514.019531 194.289062 2535.539062 170.089844 C 2557.050781 145.878906 2594.710938 148.578125 2618.898438 170.089844 L 2704.949219 256.148438 C 2726.460938 277.660156 2726.460938 315.300781 2704.949219 339.5 C 2694.199219 350.25 2678.078125 355.640625 2661.921875 355.640625 "/>
<g clip-path="url(#clip-2)">
<g clip-path="url(#clip-3)">
<path fill-rule="nonzero" fill="url(#linear-pattern-0)" d="M 2718.390625 1773.851562 L 2718.390625 588.191406 L 1532.378906 588.191406 L 1532.378906 1773.851562 Z M 2718.390625 1773.851562 "/>
</g>
</g>
<g clip-path="url(#clip-4)">
<g clip-path="url(#clip-5)">
<path fill-rule="nonzero" fill="url(#linear-pattern-1)" d="M 1072.671875 1692.109375 L 1072.671875 2229.949219 L 1634.691406 2229.949219 L 1634.691406 1692.109375 Z M 1072.671875 1692.109375 "/>
</g>
</g>
<g clip-path="url(#clip-6)">
<g clip-path="url(#clip-7)">
<path fill-rule="nonzero" fill="url(#linear-pattern-2)" d="M 83.0625 1175.878906 L 83.0625 3224.929688 L 2123.621094 3224.929688 L 2123.621094 1175.878906 Z M 83.0625 1175.878906 "/>
</g>
</g>
<g clip-path="url(#clip-8)">
<g clip-path="url(#clip-9)">
<path fill-rule="nonzero" fill="url(#linear-pattern-3)" d="M 978.550781 2730.121094 L 978.550781 2324.058594 L 575.183594 2324.058594 L 575.183594 2730.121094 Z M 978.550781 2730.121094 "/>
</g>
</g>
<g clip-path="url(#clip-10)">
<g clip-path="url(#clip-11)">
<path fill-rule="nonzero" fill="url(#linear-pattern-4)" d="M 2592.011719 113.601562 L 2592.011719 710.601562 L 3188.988281 710.601562 L 3188.988281 113.601562 Z M 2592.011719 113.601562 "/>
</g>
</g>
</svg>
